<?xml version="1.0" standalone="no"?>
<!DOCTYPE svg PUBLIC "-//W3C//DTD SVG 20010904//EN"
 "http://www.w3.org/TR/2001/REC-SVG-20010904/DTD/svg10.dtd">
<svg version="1.0" xmlns="http://www.w3.org/2000/svg"
 width="632.000000pt" height="632.000000pt" viewBox="0 0 632.000000 632.000000"
 preserveAspectRatio="xMidYMid meet">
<metadata>
Created by potrace 1.14, written by Peter Selinger 2001-2017
</metadata>
<g transform="translate(0.000000,632.000000) scale(0.100000,-0.100000)"
fill="#000000" stroke="none">
<path d="M829 5262 c-339 -340 -633 -640 -654 -667 -38 -50 -83 -139 -103
-205 -36 -114 -30 -279 12 -395 20 -55 65 -135 102 -180 68 -84 3115 -3125
3182 -3177 35 -26 70 -48 78 -48 7 0 14 -4 14 -8 0 -8 110 -46 170 -58 45 -9
185 -9 230 0 63 13 145 40 161 53 8 7 20 13 25 13 34 2 183 143 757 716 356
356 647 650 647 653 0 8 -482 251 -498 251 -6 0 -12 3 -14 8 -4 9 -331 172
-346 172 -6 0 -12 3 -14 8 -1 4 -367 189 -813 411 -445 223 -828 416 -850 430
-56 36 -110 93 -148 154 -18 29 -306 600 -641 1270 l-608 1217 -37 -1 c-34 0
-67 -31 -652 -617z"/>
<path d="M2063 5573 c83 -170 154 -310 157 -313 3 -3 39 -75 80 -160 41 -85
78 -156 83 -158 4 -2 7 -8 7 -13 0 -14 304 -623 313 -627 4 -2 7 -8 7 -13 0
-19 353 -715 373 -736 22 -22 2611 -1323 2633 -1323 16 0 420 407 456 460 29
44 77 139 83 170 2 8 10 35 17 60 14 47 16 189 4 250 -19 98 -63 197 -118 270
-10 14 -223 230 -472 480 l-454 455 106 112 c126 131 122 125 150 186 37 79
54 210 37 285 -3 12 -7 30 -9 41 -4 18 -32 77 -62 132 -7 15 -176 189 -375
388 l-361 361 -313 0 -312 0 -91 -91 -91 -91 -93 91 -93 91 -907 0 -908 0 153
-307z m2693 -392 c167 -167 304 -306 304 -310 0 -4 -36 -42 -80 -86 l-79 -79
-331 331 -331 331 82 81 82 81 25 -22 c13 -13 161 -160 328 -327z"/>
</g>
</svg>
