<svg xmlns="http://www.w3.org/2000/svg" width="81" height="54" fill="none" xmlns:v="https://vecta.io/nano"><path fill-rule="evenodd" d="M77.571 31.793v.26c0 1.164-.453 2.26-1.276 3.083s-1.919 1.277-3.083 1.277l-15.771-.001c-2.346.001-4.392-2.045-4.392-4.392l-.001-8.405-12.05-.009.01 15.169c.001.427-.21.826-.561 1.068l-18.097 12.41c-1.363.849-2.958 1.033-4.426.538-.76-.257-1.439-.682-1.994-1.237-.516-.516-.924-1.143-1.193-1.851-.876-2.293.074-4.933 2.256-6.276l12.303-8.974.252-11.28-13.556.442a1.29 1.29 0 0 1-.957-.378L2.237 10.439A5.19 5.19 0 0 1 .724 6.647c.037-1.432.646-2.75 1.714-3.71 2.042-1.839 5.234-1.687 7.267.346l8.576 8.576 29.444-1.636-2.133-2.133-12.263.347c-1.211.054-2.419-.413-3.294-1.28l-.016-.016c-.878-.878-1.338-2.053-1.294-3.307.081-2.347 2.16-4.255 4.633-4.256l16.446.426c.331.009.645.144.88.379l9.954 9.954c.886.886 1.401 2.061 1.451 3.312l.514 12.869a.93.93 0 0 0 .937.895l9.595-.05a4.44 4.44 0 0 1 4.437 4.43zm.536-9.47c-3.025 3.025-7.944 3.025-10.969 0s-3.025-7.944 0-10.969 7.945-3.025 10.969 0 3.025 7.945 0 10.969z" fill="#29ba66"/></svg>