<svg xmlns="http://www.w3.org/2000/svg" width="76" height="72" fill="none" xmlns:v="https://vecta.io/nano"><path fill-rule="evenodd" d="M73.224 46.954L60.91 66.846c-3.346 5.405-10.859 6.271-15.349 1.781-1.913-1.913-2.692-4.728-2.037-7.349l1.945-7.782a3.95 3.95 0 0 0-1.033-3.732L21.834 27.163c-.97-.97-2.4-1.366-3.731-1.033l-7.783 1.945c-2.62.656-5.435-.124-7.346-2.034-4.496-4.496-3.621-12.008 1.779-15.351L24.646-1.624c7.322-4.533 15.451-2.147 19.908 2.31l26.36 26.36c6.089 6.089 5.627 14.549 2.31 19.907zM34.792 18.834l1.892 1.892a2.34 2.34 0 0 0 3.312 0c.915-.915.915-2.398.001-3.312l-1.892-1.892 1.892-1.892c.914-.914.914-2.397-.001-3.312a2.34 2.34 0 0 0-3.312 0l-1.892 1.892-1.892-1.892c-.914-.914-2.397-.914-3.312 0a2.34 2.34 0 0 0 0 3.312l1.892 1.892-1.892 1.892a2.34 2.34 0 1 0 3.312 3.312l1.892-1.892zm16.082 16.082c-.914-.914-.914-2.398 0-3.312s2.398-.914 3.312-.001.914 2.398 0 3.313-2.398.914-3.312 0zm0 3.783c-.914.914-.913 2.398 0 3.312s2.398.914 3.312 0 .914-2.398.001-3.312-2.398-.914-3.312 0zm7.096-3.783c-.914-.914-.914-2.398 0-3.312s2.398-.913 3.312.001.914 2.398 0 3.312-2.398.914-3.312 0zm0 3.783c-.914.914-.914 2.398 0 3.312s2.398.914 3.312 0 .914-2.398 0-3.312-2.398-.914-3.312 0z" fill="#3f9cbb"/></svg>