<svg xmlns="http://www.w3.org/2000/svg" width="67" height="56" fill="none" xmlns:v="https://vecta.io/nano"><path fill-rule="evenodd" d="M.937 40.139l-.019-.29h0C-.415 19.696-1.295 6.384 8.875-3.786c8.413-8.413 21.61-8.399 30.042.034 3.79 3.79 6.111 8.958 6.526 14.311 5.351.415 10.52 2.736 14.31 6.526 8.432 8.432 8.447 21.628.033 30.042-4.65 4.65-11.012 7.223-20.02 8.096-7.713.747-16.864.271-28.949-.484l-.038-.003-6.038-.447a3.27 3.27 0 0 1-2.075-.952 3.27 3.27 0 0 1-.951-2.075l-.448-6.039-.002-.034v-.004l-.327-5.045zm26.595-17.844l-6.172-6.172-6.159 6.159 6.172 6.172-6.158 6.159 6.173 6.173 6.158-6.158 6.173 6.172 6.159-6.159-6.172-6.172 6.159-6.159-6.173-6.173-6.159 6.159z" fill="#e6a532"/></svg>