<svg xmlns="http://www.w3.org/2000/svg" width="75" height="85" fill="#5a1cbb" fill-rule="evenodd" xmlns:v="https://vecta.io/nano"><path d="M65.092 31.224c-6.157 6.157-14.476 5.184-19.258.402L35.335 21.128l-13.474.777c-1.902.111-2.924-2.194-1.585-3.533l6.265-6.265C22.742 6.896 23.192-.469 27.893-5.17c6.129-6.129 14.444-5.216 19.258-.402l17.941 17.941a13.35 13.35 0 0 1 0 18.855zm-7.852-7.45c1.002-1.002 1.002-2.627-.001-3.63s-2.627-1.002-3.629 0-1.002 2.627 0 3.629a2.57 2.57 0 0 0 3.63.001zM35.745 5.909c-1.002-1.002-1.002-2.627 0-3.629s2.627-1.002 3.629 0a2.57 2.57 0 0 1 .001 3.63c-1.002 1.002-2.627 1.002-3.63-.001zm12.562 8.933c1.002-1.002 1.002-2.627 0-3.629s-2.627-1.002-3.629 0-1.002 2.627 0 3.629 2.627 1.002 3.629 0zM37.219 30.756L55.16 48.698c4.871 4.871 5.657 13.198-.402 19.258-4.701 4.701-12.066 5.151-17.277 1.352l-6.265 6.265c-1.347 1.347-3.644.302-3.533-1.584l.777-13.474-10.5-10.5c-4.859-4.859-5.67-13.185.402-19.258 5.199-5.199 13.659-5.199 18.856-.001zm-11.405 7.852a2.57 2.57 0 0 0 0 3.631c1.002 1.002 2.627 1.002 3.63-.001s1.002-2.627 0-3.629a2.57 2.57 0 0 0-3.63-.001zm8.931 12.563a2.57 2.57 0 0 1 .001-3.63c1.002-1.002 2.627-1.002 3.629 0s1.002 2.627 0 3.629a2.57 2.57 0 0 1-3.63.001zm8.933 5.301a2.57 2.57 0 0 0 0 3.631c1.002 1.002 2.627 1.002 3.63-.001s1.002-2.627 0-3.629a2.57 2.57 0 0 0-3.63-.001z"/></svg>