<svg xmlns="http://www.w3.org/2000/svg" width="79" height="72" fill="none" xmlns:v="https://vecta.io/nano"><path fill-rule="evenodd" d="M77.059 35.681l1.323 1.323a1.87 1.87 0 0 1 0 2.646L46.632 71.398a1.87 1.87 0 0 1-2.646 0L29.121 56.532c-2.086.993-4.664.628-6.388-1.097l-5.291-5.291c-1.725-1.725-2.09-4.302-1.097-6.388L1.478 28.89a1.87 1.87 0 0 1 0-2.646L33.227-5.505a1.87 1.87 0 0 1 2.646 0l1.323 1.323-27.78 27.78c-2.188 2.188-2.1 5.837.088 8.025l12.132 12.132c-.993 2.087-.628 4.664 1.097 6.388s4.302 2.09 6.388 1.097l12.132 12.132c2.188 2.188 5.837 2.277 8.026.088l27.78-27.78zM58.014 12.217L27.67 42.56c.348-1.527 1.181-7.463-4.938-13.582a1.87 1.87 0 0 1 0-2.646L49.19-.125a1.87 1.87 0 0 1 2.646 0c4.489 4.489 5.878 8.981 6.178 12.342zM30.67 47.498l13.229 13.229a1.87 1.87 0 0 0 2.646 0l29.103-29.103a1.87 1.87 0 0 0 0-2.646L65.064 18.395c-1.495-1.495-3.377-2.343-5.325-2.612L28.024 47.498c.73-.73 1.916-.73 2.646 0zM41.253-2.771a1.87 1.87 0 0 1 2.646 0l1.323 1.323-25.135 25.135a5.62 5.62 0 0 0 0 7.937c4.005 4.005 4.201 7.696 4.043 9.335L12.149 28.978a1.87 1.87 0 0 1 0-2.646L41.253-2.771z" fill="#f04667"/></svg>