<svg xmlns="http://www.w3.org/2000/svg" width="79" height="68" fill="none" xmlns:v="https://vecta.io/nano"><path fill-rule="evenodd" d="M71.499 45.718l4.728-4.728c3.138-3.138 3.138-8.217 0-11.355L65.388 18.795l2.065-2.065c2.277-2.277 2.277-5.981 0-8.258L59.194.214c-2.277-2.277-5.981-2.277-8.258 0l-2.065 2.065L38.032-8.56c-3.138-3.138-8.217-3.138-11.355 0l-4.728 4.728L38.135 28.54c.103.227.248.413.413.578s.351.31.578.413l32.373 16.186zM53 6.408l8.258 8.258 2.065-2.065-8.258-8.258L53 6.408zM37.165 33.433c-.516-.227-1.156-.661-1.714-1.218a6.4 6.4 0 0 1-1.301-1.879L18.687-.57 2.934 15.182c-3.138 3.138-3.138 8.217 0 11.355l38.195 38.195c3.138 3.138 8.217 3.138 11.355 0L68.237 48.98 37.165 33.433z" fill="#d96c47"/></svg>